<svg xmlns="http://www.w3.org/2000/svg" xmlns:xlink="http://www.w3.org/1999/xlink" width="16" height="286"><symbol id="ic-active-active" viewBox="0 0 16 16"><g id="icons/system/light/sidebar/active/ic-active-active" fill="none" fill-rule="evenodd"><circle id="Oval" fill="#4C5794" cx="8" cy="8" r="8"/><path d="M8.857 7h2.66a.2.2 0 0 1 .142.341l-5.925 5.925a.2.2 0 0 1-.325-.22L7.143 9h-2.66a.2.2 0 0 1-.142-.341l5.925-5.925a.2.2 0 0 1 .325.22L8.857 7z" id="Combined-Shape" fill="#FFF"/></g></symbol><use xlink:href="#ic-active-active" width="16" height="16"/><symbol id="ic-active-normal" viewBox="0 0 16 16"><g id="icons/system/light/sidebar/active/ic-active-normal" fill-rule="evenodd"><circle id="Oval" cx="8" cy="8" r="8"/><path d="M8.857 7h2.66a.2.2 0 0 1 .142.341l-5.925 5.925a.2.2 0 0 1-.325-.22L7.143 9h-2.66a.2.2 0 0 1-.142-.341l5.925-5.925a.2.2 0 0 1 .325.22L8.857 7z" id="Combined-Shape" fill="#FFF"/></g></symbol><use xlink:href="#ic-active-normal" y="18" width="16" height="16"/><symbol id="ic-commodities-active" viewBox="0 0 16 16"><g id="icons/system/light/sidebar/commodities/ic-commodities-active" fill="none" fill-rule="evenodd"><circle id="Oval" fill="#4C5794" cx="8" cy="8" r="8"/><g id="Group" transform="translate(2 4)" fill="#FFF"><path d="M5.263 0h1.465a.5.5 0 0 1 .416.223l1.334 2A.5.5 0 0 1 8.06 3H3.93a.5.5 0 0 1-.416-.777l1.333-2A.5.5 0 0 1 5.263 0zm3 4h1.465a.5.5 0 0 1 .416.223l1.334 2A.5.5 0 0 1 11.06 7H6.93a.5.5 0 0 1-.416-.777l1.333-2A.5.5 0 0 1 8.263 4zm-6 0h1.465a.5.5 0 0 1 .416.223l1.334 2A.5.5 0 0 1 5.06 7H.93a.5.5 0 0 1-.416-.777l1.333-2A.5.5 0 0 1 2.263 4z" id="Combined-Shape"/></g></g></symbol><use xlink:href="#ic-commodities-active" y="36" width="16" height="16"/><symbol id="ic-commodities-normal" viewBox="0 0 16 16"><g id="icons/system/light/sidebar/commodities/ic-commodities-normal" fill="none" fill-rule="evenodd"><circle id="Oval" fill="#B0B3BF" cx="8" cy="8" r="8"/><g id="Group" transform="translate(2 4)" fill="#FFF"><path d="M5.263 0h1.465a.5.5 0 0 1 .416.223l1.334 2A.5.5 0 0 1 8.06 3H3.93a.5.5 0 0 1-.416-.777l1.333-2A.5.5 0 0 1 5.263 0zm3 4h1.465a.5.5 0 0 1 .416.223l1.334 2A.5.5 0 0 1 11.06 7H6.93a.5.5 0 0 1-.416-.777l1.333-2A.5.5 0 0 1 8.263 4zm-6 0h1.465a.5.5 0 0 1 .416.223l1.334 2A.5.5 0 0 1 5.06 7H.93a.5.5 0 0 1-.416-.777l1.333-2A.5.5 0 0 1 2.263 4z" id="Combined-Shape"/></g></g></symbol><use xlink:href="#ic-commodities-normal" y="54" width="16" height="16"/><symbol id="ic-favorite-active" viewBox="0 0 16 16"><g id="icons/system/light/sidebar/favorite/ic-favorite-active" fill="none" fill-rule="evenodd"><circle id="Oval" fill="#4C5794" cx="8" cy="8" r="8"/><path d="M8 10.653l-2.527 1.253c-.47.233-.779.016-.69-.473l.483-2.653-2.044-1.879c-.381-.35-.257-.693.263-.765L6.31 5.75l1.264-2.414c.235-.45.62-.444.853 0L9.69 5.75l2.825.387c.527.073.64.42.264.765l-2.045 1.88.483 2.652c.09.495-.225.704-.69.473L8 10.653z" id="Combined-Shape" fill="#FFF" fill-rule="nonzero"/></g></symbol><use xlink:href="#ic-favorite-active" y="72" width="16" height="16"/><symbol id="ic-favorite-normal" viewBox="0 0 16 16"><g id="icons/system/light/sidebar/favorite/ic-favorite-normal" fill="none" fill-rule="evenodd"><circle id="Oval" fill="#B0B3BF" cx="8" cy="8" r="8"/><path d="M8 10.653l-2.527 1.253c-.47.233-.779.016-.69-.473l.483-2.653-2.044-1.879c-.381-.35-.257-.693.263-.765L6.31 5.75l1.264-2.414c.235-.45.62-.444.853 0L9.69 5.75l2.825.387c.527.073.64.42.264.765l-2.045 1.88.483 2.652c.09.495-.225.704-.69.473L8 10.653z" id="Combined-Shape" fill="#FFF" fill-rule="nonzero"/></g></symbol><use xlink:href="#ic-favorite-normal" y="90" width="16" height="16"/><symbol id="ic-forex-active" viewBox="0 0 16 16"><g id="icons/system/light/sidebar/forex/ic-forex-active" fill="none" fill-rule="evenodd"><circle id="Oval" fill="#4C5794" cx="8" cy="8" r="8"/><g id="Group-Copy" transform="translate(3 4)" fill="#FFF"><path d="M7 4.25L8 3h2L8 5.5 10 8H8L7 6.75 6 8H4l2-2.5L4 3h2l1 1.25zM2 5v3H0V0h5v2H2v1h2v2H2z" id="Combined-Shape"/></g></g></symbol><use xlink:href="#ic-forex-active" y="108" width="16" height="16"/><symbol id="ic-forex-normal" viewBox="0 0 16 16"><g id="icons/system/light/sidebar/forex/ic-forex-normal" fill="none" fill-rule="evenodd"><circle id="Oval" fill="#B0B3BF" cx="8" cy="8" r="8"/><g id="Group-Copy" transform="translate(3 4)" fill="#FFF"><path d="M7 4.25L8 3h2L8 5.5 10 8H8L7 6.75 6 8H4l2-2.5L4 3h2l1 1.25zM2 5v3H0V0h5v2H2v1h2v2H2z" id="Combined-Shape"/></g></g></symbol><use xlink:href="#ic-forex-normal" y="126" width="16" height="16"/><symbol id="ic-indicator-active" viewBox="0 0 16 16"><defs><circle id="path-1" cx="1.5" cy="6.5" r="1.5"/><circle id="path-2" cx="4.5" cy="3.5" r="1.5"/><circle id="path-3" cx="7.5" cy="6.5" r="1.5"/><circle id="path-4" cx="10.5" cy="1.5" r="1.5"/></defs><g id="icons/system/light/sidebar/indicator/ic-indicator-active" fill="none" fill-rule="evenodd"><circle id="Oval" fill="#4C5794" cx="8" cy="8" r="8"/><g id="Group" transform="translate(2 4)"><path id="Path-2" stroke="#FFF" d="M1.5 6.5l3-3 3 3 3-5.005"/><g id="Oval"><use fill="#4C5794" xmlns:xlink="http://www.w3.org/1999/xlink" xlink:href="#path-1"/><circle stroke="#FFF" cx="1.5" cy="6.5" r="1"/></g><g id="Oval-Copy"><use fill="#4C5794" xlink:href="#path-2"/><circle stroke="#FFF" cx="4.5" cy="3.5" r="1"/></g><g id="Oval-Copy-2"><use fill="#4C5794" xlink:href="#path-3"/><circle stroke="#FFF" cx="7.5" cy="6.5" r="1"/></g><g id="Oval-Copy-3"><use fill="#4C5794" xlink:href="#path-4"/><circle stroke="#FFF" cx="10.5" cy="1.5" r="1"/></g></g></g></symbol><use xlink:href="#ic-indicator-active" y="144" width="16" height="16"/><symbol id="ic-indicator-normal" viewBox="0 0 16 16"><defs><circle id="path-1" cx="1.5" cy="6.5" r="1.5"/><circle id="path-2" cx="4.5" cy="3.5" r="1.5"/><circle id="path-3" cx="7.5" cy="6.5" r="1.5"/><circle id="path-4" cx="10.5" cy="1.5" r="1.5"/></defs><g id="icons/system/light/sidebar/indicator/ic-indicator-normal" fill="none" fill-rule="evenodd"><circle id="Oval" fill="#B0B3BF" cx="8" cy="8" r="8"/><g id="Group" transform="translate(2 4)"><path id="Path-2" stroke="#FFF" d="M1.5 6.5l3-3 3 3 3-5.005"/><circle stroke="#FFF" cx="1.5" cy="6.5" r="1" id="Oval"/><g id="Oval-Copy"><use fill="#B0B3BF" xlink:href="#path-2"/><circle stroke="#FFF" cx="4.5" cy="3.5" r="1"/></g><circle stroke="#FFF" cx="7.5" cy="6.5" r="1" id="Oval-Copy-2"/><g id="Oval-Copy-3"><use fill="#B0B3BF" xlink:href="#path-4"/><circle stroke="#FFF" cx="10.5" cy="1.5" r="1"/></g></g></g></symbol><use xlink:href="#ic-indicator-normal" y="162" width="16" height="16"/><symbol id="ic-indices-active" viewBox="0 0 16 16"><defs><circle id="path-1" cx="8" cy="8" r="8"/></defs><g id="icons/system/light/sidebar/indices/ic-indices-active" fill="none" fill-rule="evenodd"><g id="Group-Copy-2"><g id="Oval"><use fill="#FFF" xlink:href="#path-1"/><circle stroke="#4C5794" cx="8" cy="8" r="7.5"/></g><path d="M13.811 4.505c-.503.049-.754-.446-1.206-.446-.032 0-.064-.06-.096-.093-.12-.123-.233-.258-.356-.363-.26-.233-.603-.27-.918-.347a.237.237 0 0 0-.169.06c-.338.261-.356.68-.457 1.049-.016.056.046.156.1.209.099.083.204.159.314.225-.069.051-.128.1-.177.144a1.654 1.654 0 0 0-.584 1.043.808.808 0 0 1-.109.33.303.303 0 0 0 .033.374l.017.056a.288.288 0 0 0 .19.192.28.28 0 0 0 .26-.052.81.81 0 0 1 .588-.321.774.774 0 0 1 .597.23c.23.226.395.571.803.517.026 0 .06.034.087.06l.67.63a1.452 1.452 0 0 1-.355.15c-.207.016-.415 0-.621 0a3.711 3.711 0 0 0-.452.083l-.055.086c-.157-.182-.308-.364-.47-.531-.233-.245-.44-.253-.662 0a.528.528 0 0 1-.452.182c-.149 0-.355-.038-.439.045-.262.288-.712.448-.685.957 0 .061-.077.143-.137.181a.535.535 0 0 0-.201.513c.014.147.014.295 0 .442a.592.592 0 0 0 .205.545c.066.091.112.196.133.308.023.067.01.15.044.207.23.387.858.475 1.157.138a.56.56 0 0 1 .665-.14c.243.08.393.328.356.586-.025.18-.025.364 0 .545.02.147.076.286.164.404.188.232.187.714.082.994-.011.026-.073.329-.082.358-1.854 1.192-4.27 1.33-6.305.505l.215-.308a.22.22 0 0 1 .059-.066c.453-.44.905-.88 1.362-1.316.045-.044.128-.04.178-.078.203-.15.417-.28.413-.593a.657.657 0 0 1 .15-.364c.147-.196.254-.787.113-.976-.106-.142-.28-.325-.421-.324a.8.8 0 0 1-.603-.294c-.235-.226-.472-.45-.712-.666a.385.385 0 0 0-.247-.121.515.515 0 0 1-.507-.23c-.33-.423-.742-.545-1.26-.472-.518.073-.753.256-.712.814a.703.703 0 0 1-.227.635.43.43 0 0 0-.113.227c-.122.63.431.997.577 1.522.009.033.055.055.083.082.116.107.223.225.356.322a.55.55 0 0 1 .214.46c0 .3-.013.863 0 1.163-1.344-.893-2.609-2.446-3.08-4.012.074.078.475.074.58.092.153 0 .251-.029.231-.223-.02-.195-.008-.402-.033-.6a.485.485 0 0 1 .178-.48c.177-.135.341-.273.523-.393a.93.93 0 0 1 .382-.182c.406-.042.585-.216.62-.633a.533.533 0 0 1 .102-.238c.205-.283.426-.556.627-.842a5.109 5.109 0 0 1 1.31-1.272c.458-.308.71-.762 1.092-1.091a2.13 2.13 0 0 1-.596-.217.667.667 0 0 0-.534-.181c-.166.021-.34 0-.502.032a2.043 2.043 0 0 0-.406.182 2.29 2.29 0 0 1-.43.202c-.16.038-.338 0-.502.033-.32.062-.5-.118-.681-.364l1.106-1.229c.356-.39.666-.41 1.041-.045a2 2 0 0 1 .226.325l.075-.105.31-.184a.65.65 0 0 0-.305-.57.526.526 0 0 0-.196-.07.958.958 0 0 1-.434-.182.866.866 0 0 0-.146-.094c.37-.2.759-.366 1.159-.493a.884.884 0 0 1 .711.378c.025.035.105.035.162.04.534.038.769.285.797.833.021.225.03.45.027.676-.02.355.231.511.463.644a.27.27 0 0 0 .264.045.278.278 0 0 0 .175-.207c.062-.182.26-.464.393-.462.498 0 .86-.23 1.212-.529.016-.013.051 0 .067-.013.22-.198.484-.352.472-.727a.616.616 0 0 1 .144-.364c1.198.549 2.66 1.385 3.376 2.51.092.145-.08.389 0 .538-.09.02-.359-.002-.375 0z" id="Path" fill="#4C5794"/></g></g></symbol><use xlink:href="#ic-indices-active" y="180" width="16" height="16"/><symbol id="ic-indices-normal" viewBox="0 0 16 16"><g id="icons/system/light/sidebar/indices/ic-indices-normal"><circle id="path-1" cx="8" cy="8" r="8"/><path d="M13.811 4.505c-.503.049-.754-.446-1.206-.446-.032 0-.064-.06-.096-.093-.12-.123-.233-.258-.356-.363-.26-.233-.603-.27-.918-.347a.237.237 0 0 0-.169.06c-.338.261-.356.68-.457 1.049-.016.056.046.156.1.209.099.083.204.159.314.225-.069.051-.128.1-.177.144a1.654 1.654 0 0 0-.584 1.043.808.808 0 0 1-.109.33.303.303 0 0 0 .033.374l.017.056a.288.288 0 0 0 .19.192.28.28 0 0 0 .26-.052.81.81 0 0 1 .588-.321.774.774 0 0 1 .597.23c.23.226.395.571.803.517.026 0 .06.034.087.06l.67.63a1.452 1.452 0 0 1-.355.15c-.207.016-.415 0-.621 0a3.711 3.711 0 0 0-.452.083l-.055.086c-.157-.182-.308-.364-.47-.531-.233-.245-.44-.253-.662 0a.528.528 0 0 1-.452.182c-.149 0-.355-.038-.439.045-.262.288-.712.448-.685.957 0 .061-.077.143-.137.181a.535.535 0 0 0-.201.513c.014.147.014.295 0 .442a.592.592 0 0 0 .205.545c.066.091.112.196.133.308.023.067.01.15.044.207.23.387.858.475 1.157.138a.56.56 0 0 1 .665-.14c.243.08.393.328.356.586-.025.18-.025.364 0 .545.02.147.076.286.164.404.188.232.187.714.082.994-.011.026-.073.329-.082.358-1.854 1.192-4.27 1.33-6.305.505l.215-.308a.22.22 0 0 1 .059-.066c.453-.44.905-.88 1.362-1.316.045-.044.128-.04.178-.078.203-.15.417-.28.413-.593a.657.657 0 0 1 .15-.364c.147-.196.254-.787.113-.976-.106-.142-.28-.325-.421-.324a.8.8 0 0 1-.603-.294c-.235-.226-.472-.45-.712-.666a.385.385 0 0 0-.247-.121.515.515 0 0 1-.507-.23c-.33-.423-.742-.545-1.26-.472-.518.073-.753.256-.712.814a.703.703 0 0 1-.227.635.43.43 0 0 0-.113.227c-.122.63.431.997.577 1.522.009.033.055.055.083.082.116.107.223.225.356.322a.55.55 0 0 1 .214.46c0 .3-.013.863 0 1.163-1.344-.893-2.609-2.446-3.08-4.012.074.078.475.074.58.092.153 0 .251-.029.231-.223-.02-.195-.008-.402-.033-.6a.485.485 0 0 1 .178-.48c.177-.135.341-.273.523-.393a.93.93 0 0 1 .382-.182c.406-.042.585-.216.62-.633a.533.533 0 0 1 .102-.238c.205-.283.426-.556.627-.842a5.109 5.109 0 0 1 1.31-1.272c.458-.308.71-.762 1.092-1.091a2.13 2.13 0 0 1-.596-.217.667.667 0 0 0-.534-.181c-.166.021-.34 0-.502.032a2.043 2.043 0 0 0-.406.182 2.29 2.29 0 0 1-.43.202c-.16.038-.338 0-.502.033-.32.062-.5-.118-.681-.364l1.106-1.229c.356-.39.666-.41 1.041-.045a2 2 0 0 1 .226.325l.075-.105.31-.184a.65.65 0 0 0-.305-.57.526.526 0 0 0-.196-.07.958.958 0 0 1-.434-.182.866.866 0 0 0-.146-.094c.37-.2.759-.366 1.159-.493a.884.884 0 0 1 .711.378c.025.035.105.035.162.04.534.038.769.285.797.833.021.225.03.45.027.676-.02.355.231.511.463.644a.27.27 0 0 0 .264.045.278.278 0 0 0 .175-.207c.062-.182.26-.464.393-.462.498 0 .86-.23 1.212-.529.016-.013.051 0 .067-.013.22-.198.484-.352.472-.727a.616.616 0 0 1 .144-.364c1.198.549 2.66 1.385 3.376 2.51.092.145-.08.389 0 .538-.09.02-.359-.002-.375 0z" id="Path" fill="#fff"/></g></symbol><use xlink:href="#ic-indices-normal" y="198" width="16" height="16"/><symbol id="ic-otc-active" viewBox="0 0 16 16"><g id="icons/system/light/sidebar/otc/ic-otc-active" fill="none" fill-rule="evenodd"><circle id="Oval" fill="#4C5794" cx="8" cy="8" r="8"/><g id="Group-3-Copy"><g id="Group-2" transform="translate(10 8)" fill="#FFF"><path d="M0 0h4v9H0V0zm1 1v1h2V1H1zm0 2v1h2V3H1z" id="Combined-Shape"/></g><g id="Group" transform="translate(2 3)" fill="#FFF"><path d="M4 2h2v1h1v11H0V3h1V2h2V0h1v2zM1 5v1h2V5H1zm3 0v1h2V5H4zM1 7v1h2V7H1zm3 0v1h2V7H4zM1 9v1h2V9H1zm3 0v1h2V9H4z" id="Combined-Shape"/></g><path d="M8 15A7 7 0 1 0 8 1a7 7 0 0 0 0 14zm0 1A8 8 0 1 1 8 0a8 8 0 0 1 0 16z" id="Oval-Copy" fill="#4C5794" fill-rule="nonzero"/></g></g></symbol><use xlink:href="#ic-otc-active" y="216" width="16" height="16"/><symbol id="ic-otc-normal" viewBox="0 0 16 16"><path d="M8 0a8 8 0 1 1-8 8 8 8 0 0 1 8-8" fill="#b0b3bf"/><path d="M11 12v-1h2v1h-2m0-2V9h2v1h-2m3-2h-4v6.71a7 7 0 0 0 4-3.1V8M6 13v-1h2v1H6m-3-2v-1h2v1H3m3 0v-1h2v1H6M3 9V8h2v1H3m3 0V8h2v1H6m0-6H5v2H3v1H2v5.61a7 7 0 0 0 1 1.29V12h2v1H3.1A7 7 0 0 0 8 15a6.63 6.63 0 0 0 1-.07V6H8V5H6V3" fill="#fff"/></symbol><use xlink:href="#ic-otc-normal" y="234" width="16" height="16"/><symbol id="ic-volatility-active" viewBox="0 0 16 16"><g id="icons/system/light/sidebar/volatility/ic-volatility-active" fill="none" fill-rule="evenodd"><circle id="Oval" fill="#4C5794" cx="8" cy="8" r="8"/><g id="ic-volatility-active-light" transform="translate(1 2)"><path d="M9.5 10.207l-.646.647-.708-.708L10 8.293l1.854 1.853-.708.708-.646-.647V12h-1v-1.793zm-7-7.414V1h1v1.793l.646-.647.708.708L3 4.707 1.146 2.854l.708-.708.646.647zM3 6.707L1.354 8.353l-.708-.707L3 5.293l2 2 3-3 2 2 2.646-2.647.708.708L10 7.707l-2-2-3 3-2-2z" id="Combined-Shape" fill="#FFF" fill-rule="nonzero"/></g></g></symbol><use xlink:href="#ic-volatility-active" y="252" width="16" height="16"/><symbol id="ic-volatility-normal" viewBox="0 0 16 16"><g id="icons/system/light/sidebar/volatility/ic-volatility-normal" fill="none" fill-rule="evenodd"><circle id="Oval" fill="#B0B3BF" cx="8" cy="8" r="8"/><g id="ic-volatility-active-light" transform="translate(1 2)"><path d="M9.5 10.207l-.646.647-.708-.708L10 8.293l1.854 1.853-.708.708-.646-.647V12h-1v-1.793zm-7-7.414V1h1v1.793l.646-.647.708.708L3 4.707 1.146 2.854l.708-.708.646.647zM3 6.707L1.354 8.353l-.708-.707L3 5.293l2 2 3-3 2 2 2.646-2.647.708.708L10 7.707l-2-2-3 3-2-2z" id="Combined-Shape" fill="#FFF" fill-rule="nonzero"/></g></g></symbol><use xlink:href="#ic-volatility-normal" y="270" width="16" height="16"/></svg>